<svg xmlns="http://www.w3.org/2000/svg" viewBox="0 0 512 512" width="512" height="512">
  <!-- Background rounded square -->
  <rect width="512" height="512" rx="112" fill="#B5613A"/>

  <!-- Three pantry shelves -->
  <rect x="80" y="148" width="352" height="20" rx="10" fill="#FAF7F3"/>
  <rect x="80" y="248" width="352" height="20" rx="10" fill="#FAF7F3"/>
  <rect x="80" y="348" width="352" height="20" rx="10" fill="#FAF7F3"/>

  <!-- Items on top shelf (jars) -->
  <rect x="112" y="108" width="36" height="40" rx="8" fill="#FAF7F3" opacity="0.9"/>
  <rect x="164" y="114" width="36" height="34" rx="8" fill="#FAF7F3" opacity="0.65"/>
  <rect x="216" y="108" width="36" height="40" rx="8" fill="#FAF7F3" opacity="0.9"/>
  <rect x="268" y="114" width="36" height="34" rx="8" fill="#FAF7F3" opacity="0.65"/>
  <rect x="320" y="108" width="36" height="40" rx="8" fill="#FAF7F3" opacity="0.9"/>

  <!-- Items on middle shelf -->
  <rect x="112" y="208" width="36" height="40" rx="8" fill="#FAF7F3" opacity="0.65"/>
  <rect x="164" y="202" width="36" height="46" rx="8" fill="#FAF7F3" opacity="0.9"/>
  <rect x="216" y="208" width="36" height="40" rx="8" fill="#FAF7F3" opacity="0.65"/>
  <rect x="268" y="202" width="36" height="46" rx="8" fill="#FAF7F3" opacity="0.9"/>
  <rect x="320" y="208" width="36" height="40" rx="8" fill="#FAF7F3" opacity="0.65"/>
  <rect x="372" y="208" width="36" height="40" rx="8" fill="#FAF7F3" opacity="0.65"/>

  <!-- Items on bottom shelf -->
  <rect x="112" y="302" width="46" height="46" rx="8" fill="#FAF7F3" opacity="0.9"/>
  <rect x="172" y="308" width="46" height="40" rx="8" fill="#FAF7F3" opacity="0.65"/>
  <rect x="232" y="302" width="46" height="46" rx="8" fill="#FAF7F3" opacity="0.9"/>
  <rect x="292" y="308" width="46" height="40" rx="8" fill="#FAF7F3" opacity="0.65"/>
  <rect x="352" y="302" width="46" height="46" rx="8" fill="#FAF7F3" opacity="0.9"/>

  <!-- Left vertical support -->
  <rect x="80" y="148" width="14" height="220" rx="7" fill="#FAF7F3" opacity="0.4"/>
  <!-- Right vertical support -->
  <rect x="418" y="148" width="14" height="220" rx="7" fill="#FAF7F3" opacity="0.4"/>
</svg>
